PathFileType	4	(X/Y/Z)	C:/Users/opensim2020/Desktop/walking_exp_matlab/subject01_walking06_straight_01.trc	
DataRate	CameraRate	NumFrames	NumMarkers	Units	OrigDataRate	OrigDataStartFrame	OrigNumFrames	
100.00	100.00	6	43	mm	100.00	985	251	
Frame#	Time	LFHD			RFHD			LBHD			RBHD			C7			T10			CLAV			STRN			RBAK			LSHO			LUPA			LELB			LFRM			LWRA			LWRB			LFIN			RSHO			RUPA			RELB			RFRM			RWRA			RWRB			RFIN			LASI			RASI			LPSI			RPSI			LTHI			LKNE			LTIB			LANK			LHEE			LTOE			RTHI			RKNE			RTIB			RANK			RHEE			RTOE			*39			*40			*41			*42			
		X1	Y1	Z1	X2	Y2	Z2	X3	Y3	Z3	X4	Y4	Z4	X5	Y5	Z5	X6	Y6	Z6	X7	Y7	Z7	X8	Y8	Z8	X9	Y9	Z9	X10	Y10	Z10	X11	Y11	Z11	X12	Y12	Z12	X13	Y13	Z13	X14	Y14	Z14	X15	Y15	Z15	X16	Y16	Z16	X17	Y17	Z17	X18	Y18	Z18	X19	Y19	Z19	X20	Y20	Z20	X21	Y21	Z21	X22	Y22	Z22	X23	Y23	Z23	X24	Y24	Z24	X25	Y25	Z25	X26	Y26	Z26	X27	Y27	Z27	X28	Y28	Z28	X29	Y29	Z29	X30	Y30	Z30	X31	Y31	Z31	X32	Y32	Z32	X33	Y33	Z33	X34	Y34	Z34	X35	Y35	Z35	X36	Y36	Z36	X37	Y37	Z37	X38	Y38	Z38	X39	Y39	Z39	X40	Y40	Z40	X41	Y41	Z41	X42	Y42	Z42	X43	Y43	Z43	

220	2.190	1405.90002	564.24341	1675.62280	1514.83167	596.77234	1687.77344	1435.63147	470.51962	1597.17725	1550.87866	502.38715	1608.53442	1463.34558	474.19342	1428.45996	1467.39783	449.04782	1134.88013	1462.23499	621.57172	1367.33252	1458.98425	670.85895	1213.18701	1539.60303	427.64172	1232.82520	1302.40210	559.80237	1392.32922	1215.92944	544.69965	1207.66223	1211.99121	541.03485	1056.89258	1188.25903	588.48682	952.77765	1213.36084	672.80994	841.89868	1182.52832	621.38092	835.01349	1181.99707	672.89618	765.29297	1613.81165	557.83813	1391.54736	1715.76953	510.27533	1190.57532	1719.74353	517.33026	1065.37708	1748.11377	557.96124	950.56067	1726.80737	650.54449	844.97815	1765.82788	607.79199	839.42462	1763.12610	655.28467	768.25720	1363.80322	635.23126	935.82709	1581.03442	626.29370	933.32867	1406.73254	445.90381	940.58228	1552.28845	441.60864	937.38904	1322.39783	637.80200	602.89905	1348.57581	642.67401	468.80524	1345.10999	597.11108	283.85648	1404.71301	562.53760	72.08346	1455.11072	513.45966	43.58683	1406.93005	709.40350	37.94983	1647.98792	634.86670	601.93854	1634.66248	663.05231	447.87418	1632.43054	513.60925	357.17084	1582.92358	354.32361	229.40112	1523.02832	305.10889	240.77158	1597.05237	386.44513	88.58728	1496.34973	570.27594	1715.31311	-3101.98389	1973.20654	1023.41028	-3140.57446	2012.68738	1022.14160			 
221	2.200	1405.18298	573.89850	1676.20166	1513.95056	606.54626	1688.36060	1434.99573	480.07391	1597.85779	1550.22046	512.13489	1609.24902	1462.86462	483.52921	1429.18762	1466.71094	458.13263	1135.62964	1461.66919	630.89948	1367.88733	1458.20935	679.91431	1213.61389	1538.94690	436.84161	1233.47864	1301.90027	569.05640	1392.95654	1215.20667	555.41589	1208.44775	1210.37610	553.56659	1057.62207	1186.59106	603.12390	954.51874	1211.34753	689.79675	845.52301	1180.70422	638.50458	837.45319	1179.52917	691.76642	769.28790	1613.40833	567.13361	1392.30261	1714.83936	518.94629	1191.07068	1718.42273	525.27972	1066.03540	1746.90283	564.03070	950.81415	1725.33215	654.23340	843.16180	1764.70605	611.66144	838.63318	1761.92371	657.56805	766.39667	1362.41235	643.69244	936.38330	1579.55420	635.79041	934.53674	1406.82471	454.49530	941.12500	1552.63538	451.33005	938.61786	1321.96179	642.92645	602.50775	1348.18750	646.36884	468.22281	1345.00464	599.52350	283.75876	1404.72498	562.66132	72.15173	1455.04492	513.36011	43.90769	1406.92090	709.52069	37.83626	1646.89050	651.80145	604.72479	1632.55225	681.76947	450.77759	1631.59717	533.83185	358.64133	1582.98218	376.77216	227.20276	1523.66736	326.08029	236.32956	1597.78870	415.80234	88.67153	1495.59167	580.04944	1716.00281	-3101.81934	1973.19800	1023.38074	-3140.53589	2012.57776	1022.04797			 
222	2.210	1404.36145	583.36908	1676.80151	1513.16406	616.31384	1688.93262	1434.50989	489.59753	1598.50623	1549.63977	521.86835	1609.96240	1462.33643	492.86139	1429.82483	1466.19275	467.17139	1136.34021	1461.03931	640.16852	1368.37915	1457.39771	688.92407	1214.08936	1538.40894	446.08115	1234.11328	1301.40967	578.21735	1393.60681	1214.44775	565.90417	1209.31824	1209.02490	565.86334	1058.37708	1184.98938	617.80243	956.30255	1209.38245	706.63251	849.33789	1178.98096	655.43005	840.05176	1177.11230	710.36560	773.50940	1612.86670	576.40179	1392.87805	1713.95667	527.45410	1191.54517	1717.06909	533.06030	1066.65820	1745.73096	570.12671	951.03162	1724.39172	658.30481	841.66638	1763.67896	615.57965	837.98138	1760.71765	659.90680	764.61829	1360.95471	651.76556	936.74780	1578.04810	645.23541	935.72217	1406.97314	463.15659	941.62366	1552.80066	461.05865	939.58325	1321.53516	648.04193	602.07941	1347.69299	649.88666	467.80814	1344.76379	601.30237	283.99564	1404.77075	562.94287	72.41043	1455.05615	513.41803	44.29463	1406.95251	709.71240	37.73864	1645.35107	666.65961	607.56464	1631.01221	700.23303	454.15671	1630.72437	553.86194	359.44836	1583.26086	399.97202	224.03317	1524.89148	347.48886	230.75035	1597.71570	446.17871	87.97236	1494.81897	589.83289	1716.60254	-3101.98315	1973.11511	1023.72137	-3140.61133	2012.61462	1022.13440			 
223	2.220	1403.84253	593.04498	1677.33142	1512.51135	626.13245	1689.47009	1434.06970	499.10098	1599.24133	1549.15576	531.60687	1610.65356	1461.95813	502.31573	1430.36121	1465.62158	476.22977	1137.04260	1460.39233	649.46552	1368.90869	1456.58960	697.97375	1214.51477	1538.05481	455.32016	1234.88123	1300.97546	587.32019	1394.28564	1213.64209	576.16870	1210.14502	1207.81897	578.14557	1059.14648	1183.51294	632.13202	958.24548	1207.49890	723.31738	853.25653	1177.35864	672.22528	842.80811	1174.72290	728.90930	777.84601	1612.41162	585.87415	1393.42310	1713.15393	535.97565	1192.08130	1715.82251	540.75439	1067.26599	1744.58179	576.05438	951.19287	1723.16956	662.15833	840.12415	1762.76355	619.66187	837.51001	1759.55457	662.34924	763.03198	1359.54285	660.02368	937.19446	1576.49280	654.63440	936.86926	1407.22302	471.68262	942.15710	1553.33557	470.47522	940.83710	1321.09595	652.99231	601.66919	1347.02039	653.11536	467.40903	1344.45520	602.32843	284.18613	1404.78125	563.16309	72.61979	1455.11060	513.56531	44.72936	1406.90930	709.80920	37.68583	1644.50513	682.11383	610.64539	1629.59253	718.17053	457.86429	1629.46631	573.65961	359.26395	1583.37952	423.65207	219.55235	1526.18286	369.58508	223.73422	1596.99597	477.21808	86.37763	1494.18787	599.64703	1717.18677	-3102.03784	1973.06201	1023.31213	-3140.75269	2012.60767	1022.04462			 
224	2.230	1403.27930	602.64209	1677.84216	1511.86951	635.95148	1689.92224	1433.73120	508.63950	1599.89404	1548.77283	541.37225	1611.29590	1461.65491	511.65613	1430.94873	1465.07263	485.28772	1137.63049	1459.79663	658.71478	1369.35693	1455.80286	707.06842	1214.95459	1537.79089	464.45001	1235.76257	1300.47888	596.31177	1394.89697	1212.78748	586.41418	1210.98376	1206.70117	590.02454	1059.95947	1182.04272	646.34387	960.11328	1205.63403	739.80750	857.32025	1175.85156	688.87128	845.68640	1172.48035	747.10748	782.39307	1611.94043	595.41321	1393.84766	1712.37561	544.42865	1192.55127	1714.59387	548.42444	1067.80554	1743.43811	581.87921	951.28827	1722.04773	666.07312	838.70410	1762.11267	623.82709	837.22308	1758.34485	664.76257	761.49536	1358.14868	668.11951	937.47913	1574.57117	663.68060	937.81287	1407.43494	480.09274	942.61334	1553.62573	480.04050	941.78455	1320.55933	657.83685	601.30444	1346.21399	656.00073	466.99915	1344.49414	602.88422	284.18552	1404.86414	563.29810	72.73417	1455.14856	513.55280	45.03245	1406.93237	709.87061	37.70628	1643.06641	696.74744	613.18268	1628.30908	735.65405	461.61914	1628.81592	593.55194	359.15469	1583.84729	448.14755	214.36618	1527.57141	392.78491	215.97467	1596.18799	508.84918	84.35065	1493.61047	609.47852	1717.71228	-3101.76147	1973.16406	1023.33502	-3140.68945	2012.45984	1021.93390			 
225	2.240	1402.71912	612.14569	1678.25439	1511.33130	645.77301	1690.30518	1433.43616	518.05511	1600.47449	1548.40100	551.11932	1611.85071	1461.26648	520.98212	1431.51257	1464.49243	494.26700	1138.21985	1459.20801	668.02533	1369.78552	1454.98914	716.14594	1215.34497	1537.54846	473.71686	1236.24792	1300.07410	605.38989	1395.57239	1212.00134	596.61255	1211.84497	1205.66431	601.72693	1060.67993	1180.86206	660.34283	962.09802	1203.89563	756.16907	861.51788	1174.48267	705.29327	848.62323	1170.24072	765.05835	787.03156	1611.50464	605.04602	1394.21252	1711.47388	552.84595	1192.92065	1713.46680	556.06659	1068.30664	1742.40601	587.70941	951.38470	1720.99512	670.02997	837.33417	1761.18909	627.82733	836.65399	1757.44849	667.61090	760.28259	1356.86023	676.13788	937.59583	1572.75854	672.72736	938.72125	1407.73474	488.47916	943.09979	1554.05701	489.36542	942.68134	1320.11780	662.61029	601.01343	1345.40723	658.71356	466.65930	1344.20935	603.69135	284.28107	1404.76318	563.59308	73.05215	1455.21387	513.74548	45.56331	1406.82202	709.96252	37.63088	1642.14453	711.29810	615.89569	1626.64380	752.45129	464.88177	1627.82959	613.44714	357.93130	1584.23816	473.20221	208.09041	1528.63513	416.55396	206.95285	1595.35706	540.68030	81.78264	1493.12000	619.34473	1718.16638	-3101.94629	1973.23413	1023.49365	-3140.71631	2012.52747	1022.10284			 
